<svg xmlns="http://www.w3.org/2000/svg" viewBox="0 0 100 100" width="100" height="100"><path d="M0 0h100v100H0V0Z" style="fill:none"/><path d="m0 0 2 1C.630165 4.161158.010936 4.99271-3 7c-1.312598 2.447508-2.494872 4.846579-3.625 7.375l-.945313 2.039063C-11.0242 23.976888-12.303317 30.042769-9.3125 38.0625c3.08487 7.094126 6.899658 11.083273 13.738281 14.761719L6 54v3c-6.52514-1.43553-10.76281-3.801727-14.636719-9.339844C-13.19726 40.316911-16.232407 33.7539-15 25-12.300085 14.88401-8.681655 6.179844 0 0Z" transform="translate(25 21)" style="fill:#111"/><path d="M0 0c6.856533 1.869964 11.300198 7.441757 14.75 13.375C19.016047 21.724063 21.429467 29.525349 20 39c-2.353432 7.189605-5.418725 12.61915-12.070313 16.425781C5.593793 56.120876 4.27512 55.783652 2 55c2.055349-2.207597 3.792722-3.889473 6.46875-5.316406C12.952044 46.70165 14.373718 41.979234 16 37c1.54417-8.889796-2.009436-17.73948-7-25C6.02746 8.065992 3.579655 5.023339-1 3l1-3Z" transform="translate(67 18)" style="fill:#0f0f0f"/></svg>