<svg xmlns="http://www.w3.org/2000/svg" viewBox="0 0 100 100" width="100" height="100"><path d="M0 0h100v100H0V0Z" style="fill:none"/><path d="M0 0c3.82423 1.274743 4.18037 2.483355 6 6 .774644 1.91977 1.504668 3.858189 2.1875 5.8125l1.042969 2.957031L10 17c3.0958-3.995191 5.707793-8.253793 8.378906-12.539063C20 2 20 2 22 0c2.398438.082031 2.398438.082031 5 1 1.914063 2.074219 1.914063 2.074219 3.625 4.6875l1.792969 2.722656C34.135424 11.221695 35.655494 13.994634 37 17c2.235185-2.235185 2.840229-3.873224 3.9375-6.8125C42.3421 6.552376 43.828288 3.257568 46 0c1.8125.527344 1.8125.527344 4 2 1.201397 2.549964 2.135216 4.900155 3 7.5625l.768066 2.307861C54.53821 14.239561 55.274422 16.616808 56 19l.65918 2.110352C60.382823 33.37055 60.46199 45.265073 60 58l-3 1-.012451-1.68628C56.848919 46.466167 56.186792 36.070813 53.625 25.5l-.633545-2.619873C51.79017 18.235856 50.161024 14.296772 48 10V6c-2.28045.85635-2.28045.85635-2.964844 3.582031a31112.434057 31112.434057 0 0 0-1.9375 6.4375C42.057863 18.842885 40.934358 20.723961 39 23c-1.742188-.070313-1.742188-.070313-4-1-1.548553-2.284846-2.850326-4.446818-4.125-6.875-.689406-1.268609-1.379487-2.536851-2.070313-3.804688L27 8l-2-3h-2l-1.644531 2.921875A19913.023135 19913.023135 0 0 1 19.1875 11.75l-1.080078 1.921875C14.113563 20.706929 14.113563 20.706929 12 23H9c-2.85911-4.63373-4.780756-8.944977-6.289063-14.179688C2.15574 6.798517 2.15574 6.798517 0 6l-.25 2.3125C-.889413 11.456282-1.725215 14.02899-2.875 17-7.974211 30.851312-8.640719 44.38658-9 59l-3-1c-.915506-19.456624 1.416448-38.26066 10-56l2-2Z" transform="translate(25 20)" style="fill:#0b0b0b"/></svg>