<svg xmlns="http://www.w3.org/2000/svg" viewBox="0 0 100 100" width="100" height="100"><path d="M0 0h100v100H0V0Z" style="fill:none"/><path d="m0 0 2 1 .04419 2.639404c.061828 3.297437.136109 6.594143.218261 9.891114.032824 1.41461.060981 2.829337.083985 4.24414C2.703185 39.15683 7.967612 50.967612 23 66l1-56h3c.023145 7.788481.040926 15.576954.051812 23.365461.005224 3.61631.012313 7.232598.023627 10.848894.010846 3.488326.016841 6.976629.019438 10.46497.002754 1.982052.010563 3.964095.01842 5.946133l.000228 3.639679.00673 3.216522C27 70 27 70 26 72 15.274235 67.378125 7.402247 56.569857 2.1875 46.5c-3.131426-9.229467-3.477114-18.214376-3.39331-27.871338.018535-2.218132.020507-4.43585.020263-6.654053C-1.14786 1.14786-1.14786 1.14786 0 0Z" transform="translate(36 13)" style="fill:#050505"/></svg>