<svg xmlns="http://www.w3.org/2000/svg" viewBox="0 0 100 100" width="100" height="100"><path d="M0 0h100v100H0V0Z" style="fill:none"/><path d="M0 0c2.961783 2.961783 3.148911 5.925 3.1875 10C2.883676 27.041744-3.509824 49.895502-15 63h-2l-.679688 1.75C-22.660381 73.23781-34.89664 78.299373-44.0625 80.6875-52.164725 82.551012-59.705788 83.134987-68 83v-3l1.769043-.227783c2.703177-.353041 5.404492-.718818 8.105957-1.084717l2.78125-.357422c9.241522-1.269082 17.643624-3.227286 25.46875-8.455078l1.795654-1.174072C-22.451714 64.880722-17.084183 60.168365-14 54l-3.458984.987793c-4.458678 1.110263-8.621852 1.270816-13.197266 1.20752l-2.387085-.008576c-2.485718-.011085-4.971058-.036167-7.456665-.061737a4626.954481 4626.954481 0 0 0-5.09375-.027344C-49.72931 56.075751-53.864591 56.041303-58 56v-3l2.930664-.02832c3.645948-.04038 7.291094-.10626 10.936523-.1792 1.566952-.027935 3.134037-.049283 4.701172-.063476 16.163177.125141 16.163177.125141 29.931641-7.166504 1.890952-4.491012 3.32627-9.051793 4.667969-13.734375C-4 29-4 29-3 27l-2.011719.402344L-13 29l-2.103516.527344c-3.985382.650345-7.885011.595461-11.916015.570312l-2.60173-.004287c-2.73045-.005578-5.460815-.018127-8.191239-.030869a11158.754538 11158.754538 0 0 0-5.56836-.013672C-47.920604 30.037828-52.460287 30.020578-57 30v-3l3.234375-.04419c4.040995-.058908 8.081486-.136114 12.12207-.218261 1.73364-.032822 3.467375-.06098 5.201172-.083985C-18.186667 27.419326-18.186667 27.419326-2 22c.238705-2.443044.422757-4.863554.5625-7.3125l.13086-2.052734C-1.108265 9.413506-1 6.228918-1 3c-16.491003-1.366021-32.38543-.60469-48.822754.88208a17561.406822 17561.406822 0 0 1-4.731933.426514l-2.267853.205093C-62.23387 4.983467-67.5659 5.137225-73 5V2c50.008486-6.292902 50.008486-6.292902 73-2Z" transform="translate(84 10)" style="fill:#070707"/></svg>