<svg xmlns="http://www.w3.org/2000/svg" viewBox="0 0 100 100" width="100" height="100"><path d="M0 0h100v100H0V0Z" style="fill:none"/><path d="M0 0c9.150832 1.076569 18.37859 8.944832 24.199219 15.714844 1.177153 1.53464 2.335694 3.083787 3.472656 4.648437C29.230008 22.554728 29.230008 22.554728 31.75 24.75c5.209247 5.609958 11.4375 15.751004 11.4375 23.625-1.875-.203125-1.875-.203125-4-1-1.125-2.109375-1.125-2.109375-2-4.75-1.489737-4.112844-3.128194-6.915-6-10.25l-1.4375-3c-1.77184-3.401931-3.790911-5.354392-6.5625-8-1.11107-1.306662-2.214715-2.619658-3.3125-3.9375-3.491775-4.023132-7.258709-7.122148-11.6875-10.0625l-2.875-1.9375C.18486 3.694103-4.991171 4.091166-9.941406 6.34375c-1.65103.965111-3.264589 1.993715-4.871094 3.03125h-2l-.738281 1.679688C-19.072261 13.852702-20.941537 16.069526-23 18.5c-3.649902 4.393943-7.025364 8.874576-10.246094 13.589844-1.417512 2.067941-2.886726 4.08343-4.378906 6.097656-1.873058 2.729313-3.147173 5.06652-4.1875 8.1875l-4-1c4.35489-9.435593 10.835863-17.689208 17-26l1.820313-2.488281C-21.367468 9.382889-15.283036 2.85783-5.8125.6875-3.871994.485364-1.933891.257852 0 0Z" transform="translate(50.8125 14.625)" style="fill:#191919"/><path d="m0 0 2 1-.4375 3.277344C.369805 13.88794-.19328 23.375499-.1875 33.0625c-.000645 1.033103-.00129 2.066206-.001953 3.130615C-.14462 42.515178.246686 48.722958 1 55c-1.953613-.822754-1.953613-.822754-4-2-1.655639-6.326282-1.15234-13.127694-1.125-19.625l.012451-3.518799C-3.966017 7.414727-3.966017 7.414727 0 0Z" transform="translate(48 34)" style="fill:#050505"/><path d="M0 0c.6875 1.6875.6875 1.6875 1 4C-.375 6.625-.375 6.625-2 9l-1 2-4-1c1.84916-4.068154 3.664424-7.009483 7-10Z" transform="translate(12 50)" style="fill:#0e0e0e"/></svg>